<?xml version="1.0" encoding="UTF-8"?>
<svg width="45px" height="45px" viewBox="0 0 45 45" version="1.1" xmlns="http://www.w3.org/2000/svg" xmlns:xlink="http://www.w3.org/1999/xlink">
    <title>password-solid</title>
    <g id="password-solid" stroke="none" stroke-width="1" fill="none" fill-rule="evenodd">
        <path d="M12.2278449,0.00125705805 L32.3808775,5.09827651e-16 C36.7688213,5.09827651e-16 38.3599958,0.456876055 39.9641624,1.31479378 C41.5683291,2.1727115 42.8272885,3.43167089 43.6852062,5.03583755 L43.8367596,5.32798654 C44.5968247,6.84314665 45,8.49711466 45,12.6191225 L45,32.3808775 L44.994978,33.1484926 C44.943148,36.9617387 44.4911289,38.457218 43.6852062,39.9641624 C42.8272885,41.5683291 41.5683291,42.8272885 39.9641624,43.6852062 L39.6720135,43.8367596 C38.1568534,44.5968247 36.5028853,45 32.3808775,45 L12.6191225,45 L11.8515074,44.994978 C8.03826132,44.943148 6.542782,44.4911289 5.03583755,43.6852062 C3.43167089,42.8272885 2.1727115,41.5683291 1.31479378,39.9641624 L1.16324036,39.6720135 C0.427693516,38.2057295 0.0263826823,36.6094485 0.00125705805,32.7721551 L3.39885101e-16,12.6191225 C3.39885101e-16,8.23117867 0.456876055,6.64000422 1.31479378,5.03583755 C2.1727115,3.43167089 3.43167089,2.1727115 5.03583755,1.31479378 L5.32798654,1.16324036 C6.79427052,0.427693516 8.39055149,0.0263826823 12.2278449,0.00125705805 Z" id="Rectangle" fill="#0066CC"></path>
        <path d="M12.7880859,14.5019531 C16.081376,14.5019531 18.9097711,16.4924056 20.1358754,19.335915 L37.0458984,19.3359375 C38.7933619,19.3359375 40.2099609,20.7525365 40.2099609,22.5 C40.2099609,24.2474635 38.7933619,25.6640625 37.0458984,25.6640625 L36.9566016,25.6640625 L35.3714534,24.1486898 C35.3087301,24.0887308 35.2127092,24.0841186 35.1448632,24.1348531 L35.1285242,24.1486898 L33.5431055,25.6640625 L33.4232227,25.6640625 L31.8379771,24.1486898 C31.7752538,24.0887308 31.6792329,24.0841186 31.6113869,24.1348531 L31.5950479,24.1486898 L30.0097266,25.6640625 L29.889668,25.6640625 L28.3045008,24.1486898 C28.2417774,24.0887308 28.1457566,24.0841186 28.0779105,24.1348531 L28.0615716,24.1486898 L26.4761719,25.6640625 L26.3562891,25.6640625 L24.7710245,24.1486898 C24.7083011,24.0887308 24.6122803,24.0841186 24.5444342,24.1348531 L24.5280953,24.1486898 L22.9426172,25.6640625 L20.1357996,25.6642607 C18.9096545,28.5076764 16.0813082,30.4980469 12.7880859,30.4980469 C8.37088662,30.4980469 4.79003906,26.9171993 4.79003906,22.5 C4.79003906,18.0828007 8.37088662,14.5019531 12.7880859,14.5019531 Z M9.44824219,20.2148438 C8.18618524,20.2148438 7.16308594,21.2379431 7.16308594,22.5 C7.16308594,23.7620569 8.18618524,24.7851562 9.44824219,24.7851562 C10.7102991,24.7851562 11.7333984,23.7620569 11.7333984,22.5 C11.7333984,21.2379431 10.7102991,20.2148438 9.44824219,20.2148438 Z" id="Shape" fill="#FFFFFF"></path>
    </g>
</svg>